<?xml version="1.0" encoding="UTF-8"?>
<svg version="1.1" viewBox="0 0 1605 2048" width="779" height="994" xmlns="http://www.w3.org/2000/svg">
<path transform="translate(495,897)" d="m0 0h652l37 7 18 6 25 10 21 13 14 10 12 11 7 8 3 1v2l3-1 7 8 2 9 1 642 3 14 7 16 13 12 9 6 4 2-3 1-1 7-6 14-3 8-5 8h-2l-2 5-11 16-3 6h-2v2l-7 6-7 8-17 17-14 9-11 4-24 8-10 6-9 9-9 4-13 4-14 3-5 2-16 1-64 1-142-1h-136l-42 1-2 1-11-20-8-9-13-9-13-5-20-2h-253l-21 1-6 1v3h-10l-10-5-14-12-21-21-13-17-14-22-9-19-4-9-2 1-3-8v-4l8-7 8-8 6-9 3-11 2-2v-9l1-7 1-83h-2l-1 28h-1v-564l2-3 2 3 4-8 11-13 7-8 20-20 20-14 11-7 19-10 25-10 24-5zm-159 104m0 4v63l1 459h1v-461l-1-61zm467 115v1h5v-1zm33 0m-38 1-3 2 8-1v-1zm43 0m-30 1-19 5-1-1 2-2-5 1-12 7-14 11-9 10-7 11-4 11-2 11v24l4 16 4 8 10 13 7 7h2v2l-7 1-9 7-7 7-9 12-8 16-3 10-1 7v21l3 17 8 16 8 8 8 7 10 7 27 16 28 17 16 10 9 7 6 5 8 11 5 12 2 8v22l-3 11-5 11-7 9-7 7-14 7-15 3h-14l-16-4-10-6-7-8-2-5 1-9 5-13 1-4v-9l-4-8-8-4h-14l-8 5-4 5-2 8v12l3 12 5 8 11 11 13 9 12 5 23 3h16l20-4 3 1 14-7 14-11 7-7 10-15 5-11 6-20v-22l-5-18-6-11-10-13-13-12 4-4 9-7 6-5 9-11 7-12 7-19 1-2v-27l-3-13-7-13-9-10-13-10-18-11-15-9-28-17-14-10-10-9-7-8-5-11-2-7-1-10 2-16 5-13 9-10 10-7 11-4 5-1h27l10 3 6 4 3 6v11l-5 17v12l3 6 7 4 9 1 10-3 5-4 3-8v-18l-3-11-7-10-10-9-11-6-3 1v1l-21-5zm34 0m-52 1m55 0m3 1m-22 429m-519 115v5l2 1-1-6z"/>
<path transform="translate(480,136)" d="m0 0h33l9 2 11 4 8 2 2 3h2l-2-1v-2l27-4 15-3 12-1h473l17 1 36 6 25 7 31 12 16 8 18 10 20 14 12 9 10 8 23 23 2 4 9 11 9 9 6 8v4h3l13 22 9 17 6 15 4 13 2 12 1 4 2-1 3 13 3 26 3 14 2 6 1 34-1 243-3 12-5 12-7 10-10 9-16 8-9 3-44 1h-49l-9 1-7 10-9 14-8 12-8 10-26 26h-2v2l-11 6-10 7-15 9-22 10-21 7-33 7-7 1-21 1h-384l-28-2-29-6-20-6-16-7-16-8-14-9-16-12-10-9-21-21-13-18-12-19-3-5-22-1-78-1-12-3-14-6-10-8-9-11-6-16-2-14v-19l1-27-2-1-1-279 1-12 3-9 6-29 4-13 12-31 4-8 4-5h2l2-5 14-20 18-20 15-14 9-8 30-20 19-9 24-10 18-4 21-4zm821 130m1 1m3 4 1 2zm1 2m1 1m-266 14-10 1 2 31 4 37 2 14 1 2 33 1 12 3 17 7 15 10 13 12 7 9 9 16 9 19 2 12v31l-3 17-11 23-10 13-10 11-12 9-12 7-15 6-12 3-8 1h-22l-17-3-16-6-15-8-12-9-13-13-9-14-8-17-4-13-1-7v-31l4-16 8-19 11-16 7-6v-2h2v-2l5-1-6-8-11-13-9-10-11-14-11-12-8-9h-2l-7 8-12 12-13 18-12 20-11 27-5 19-3 24v31l3 25 6 22 6 15 8 16 12 18 9 12 23 23 17 12 16 10 23 9 9 3v2l30 5 19 2h22l23-3 18-4 16-6 19-8 16-9 12-8 11-9 7-7 7-6 9-11 8-11 7-11 9-17 8-21 6-27 2-15v-26l-4-31-5-21-9-21-9-17-13-18-11-12-12-12-14-11-17-11-16-8-25-10-23-5-14-2-16-1zm-486 0-14 1v14l1 10 4 4 1 8 1 35h1l1-5 3 17 21 1 16 2 15 6 14 7 11 8 10 9 8 9 9 15 9 21 2 8 1 9v25l-4 16-6 15-6 11-8 11-10 11-15 11-15 8-18 6-12 2h-24l-16-3-16-6-16-9-9-7-7-6-11-14-6-10-9-21-3-19v-28l2-12 5-7 5-14 9-14 8-8 8-5-6-9-9-10-9-11-13-14-9-11-9-9-4 1-4 3-8 7-9 9-9 12-11 17-10 21-6 16-5 23-2 19v13l1 28 3 17 6 21 9 21 7 12 11 16 11 12 15 15 11 9 21 14 16 8 22 8 1 2 10 2 27 4 11 1h23l28-4 19-5 26-11 11-6 21-14 12-11 13-13 14-19 12-19 11-28 5-18 2-14 1-15v-22l-3-31-4-16-9-24-9-17-11-16-8-10-9-10-8-8-17-13-19-12-20-9-15-6-29-6-24-2zm-6 73v10h1v-10z"/>
<path transform="translate(1359,911)" d="m0 0h101l12 6 2 4h2l6 7 8 7 3 7 1 7v661l-2 9-6 9-12 12-9 6-7 2h-100l-8-4-2-2-10-2-7-3-4-9-1-5v-677l4-10 14-15 11-8z" fill="#010101"/>
<path transform="translate(179,911)" d="m0 0h94l6 2 6 4 9 8 10 13 2 12v670l-1 7-10 8-12 10-10 3h-93l-8-3-8-6-11-11-4-7-1-15v-660l2-10 6-8 12-11z" fill="#010101"/>
<path transform="translate(1251,1814)" d="m0 0h69l195 1 11 4 8 6 7 8 3 8 1 7v17l-4 11-4 6-3 3 1 5 4 7 6 7 6 13 1 4v19l-7 16-8 11-8 7-14 7-5 2h-18l-9-2-4-4-21-2-10-1-4-2v-2l-9-3-8-6-6-5-8-13-2-6v-12l1-1 33-2 4-2 6-14 4-3 3-8-129-1 1 8h2l8 15 2-3 2 7v15l-4 12-6 11-11 12-14 8-6 3-5 1h-13l-12-3v-2l-33-5-6-1v-2l-6-2-10-7-7-7-9-15-2-8v-15l2-3 11 3 9 5 4 1h9l5-5 6-11 5-5 1-4-2-1-23-3-8-4-7-6-6-12-2-13v-11l2-10 4-8 4-5 10-6 8-3z"/>
<path transform="translate(421,1808)" d="m0 0h277l11 4 9 7 6 9 3 8 1 9v9l-3 12-9 16 2 5 6 5 6 10 4 12 1 6v8l-4 14-6 11-9 10-9 6-9 4v2l-6 1h-19l-8-2-2-4-16-2-20-4-10-4-11-9-8-11-4-10-1-5v-8l36-2 9-15 4-6 1-7-126 1-3 2v7h4l2-3 3 10h2l4 15v14l-4 11-6 10-10 10-10 6-8 5-5 1h-18l-9-2v-3l-7-1-25-4-13-5-11-8-7-8-9-17-2-8v-13l9 1 14 6 9 2 7-1 2-5 12-18v-3l-21-3-9-3-8-6-7-12-2-6-1-9v-9l2-10 10-14 9-6zm91 78 1 4z"/>
<path transform="translate(550,352)" d="m0 0h1l2 12v8h25l12 2 15 6 14 7 11 8 10 9 7 7 11 18 9 21 2 8 1 9v25l-4 16-6 15-6 11-8 11-11 12-15 11-15 8-18 6-12 2h-24l-16-3-16-6-16-9-9-7-8-7-11-14-6-10-9-21-3-19v-28l2-12 5-7 5-14 9-14 9-9 5-3 5 2 10 10 9 11 8 9 9 11 7 7 7 8 4 5 10 5-2-26-5-43-1-16v-11l-3-1-1-6h-1l1-11z" fill="#95C74A"/>
<path transform="translate(1040,373)" d="m0 0h33l12 3 17 7 15 10 13 12 7 8 10 18 9 19 2 12v31l-3 17-11 23-10 13-11 12-12 9-12 7-15 6-12 3-8 1h-22l-17-3-16-6-15-8-12-9-14-14-9-14-8-17-4-13-1-7v-31l4-16 8-19 12-17 6-5 1-2h2v-2l6-2 3 5 9 10 7 8 10 11 9 11 11 12v2h2l6 7 5 3h3v-12l-3-19-3-37-2-13v-13z" fill="#95C74A"/>
<path transform="translate(770,1259)" d="m0 0 5 2 25 15 23 14 15 9 14 9 9 6 7 7 5 4 5 10 2 9v18l-4 11-6 10-9 10-8 8-4 1-27-16-35-21-17-11-11-9-11-12-8-16-1-4v-17l4-9 6-9 8-9z" fill="#010101"/>
<path transform="translate(1285,1879)" d="m0 0h20l14 5 12 8 2 2 1 8h2l8 15 2-3 2 7v15l-4 12-6 11-11 12-14 8-6 3-5 1h-13l-12-3v-2l-33-5-6-1v-2l-6-2-10-7-7-7-9-15-2-8v-15l2-3 11 3 9 5 4 1h9l5-5 6-11 5-5 1-4-2-2 9-6 12-7z" fill="#95C74B"/>
<path transform="translate(471,1872)" d="m0 0h15l11 3 9 5 6 5 2 12h4l2-3 3 10h2l4 15v14l-4 11-6 10-10 10-10 6-8 5-5 1h-18l-9-2v-3l-7-1-25-4-13-5-11-8-7-8-9-17-2-8v-13l9 1 14 6 9 2 7-1 2-5 12-18 1-5 13-9 13-5z" fill="#95C74B"/>
<path transform="translate(1497,1878)" d="m0 0 13 1 18 6 5 1 5 10 7 8 6 13 1 4v19l-7 16-8 11-8 7-14 7-5 2h-18l-9-2-4-4-21-2-10-1-4-2v-2l-9-3-8-6-6-5-8-13-2-6v-12l1-1 33-2 4-2 6-14 4-3 5-10 10-8 13-5z" fill="#95C74B"/>
<path transform="translate(674,1872)" d="m0 0h16l20 6 6 2 1 6 7 6 6 10 4 12 1 6v8l-4 14-6 11-9 10-9 6-9 4v2l-6 1h-19l-8-2-2-4-16-2-20-4-10-4-11-9-8-11-4-10-1-5v-8l36-2 9-15 4-6 1-6 14-10 11-5z" fill="#95C74B"/>
<path transform="translate(1281,963)" d="m0 0h3v2l3-1 7 8 2 9 1 642 3 14 5 12-1 2-5-8v-3h-2l-3-7-2-11-1-17-1-74v-410l1-55v-30l1-15v-34l-1-13-10-10z" fill="#272A25"/>
<path transform="translate(1495,1906)" d="m0 0h10l10 5 6 6 3 9v10l-5 10-8 6-5 2h-11l-7-3-8-7-4-9v-9l6-12 6-5z"/>
<path transform="translate(679,1899)" d="m0 0h8l9 4 6 5 4 7 1 10-2 8-6 8-5 4-6 2h-11l-8-4-5-5-5-9v-12l6-10 6-5z"/>
<path transform="translate(473,1899)" d="m0 0h9l9 4 6 5 4 8 1 7-3 12-6 7-8 4-3 1h-9l-9-4-5-5-4-6-1-3v-13l5-8 7-6z"/>
<path transform="translate(1290,1906)" d="m0 0h8l10 4 6 5 5 10v10l-4 9-8 7-7 3h-9l-10-4-7-8-3-9v-8l6-11 6-5z"/>
<path transform="translate(334,992)" d="m0 0 4 3v71l-1 2 1 496h-1v-33h-2l-1 28h-1v-564z" fill="#868686"/>
<path transform="translate(1350,398)" d="m0 0 2 4 3 9 1 34-1 243-3 12-5 12-7 10-10 9-16 8-9 3-44 1h-56l2-2 68-1 22-1 6-1h5l1-2 13-4 5-2v-2h3l1-3h2v-2h2l1-3 4-4 4-8 3-10 2-6 1-151z" fill="#2B2E29"/>
<path transform="translate(1251,1814)" d="m0 0h69l195 1 9 3-1 2-9 1-4 1-2-1h-81v1h-85v-1l-95-1-5-2v-2h-6v-1z" fill="#2B2E29"/>
<path transform="translate(421,1808)" d="m0 0h277l4 2-3 2-5 1-32 1h-10l-2-1v2l-2-1h-181l-32-1-6-2v-1l-8-1z" fill="#272A25"/>
<path transform="translate(680,1865)" d="m0 0 14 2 9 2 9 3h9l-4 8-7-1-20-6h-16l-8 2-14 7-7 6h-128l-4 2-1-4-9-7-8-4-9-2h-15l-12 3-10 5-10 7h-10v-3l9-4 11-8 12-5 12-2h10l14 3 14 8 7 6 2 2h116l11-6 7-6 12-5z" fill="#272A25"/>
<path transform="translate(544,307)" d="m0 0h1l1 5h1l1 13 1 41 1 7h3l3 36 4 34 1 14v12l-5-1-6-4-7-8-12-13-11-13-9-11-14-15-3-2-1-5 5 2 6 4 9 11 12 13 7 8 8 10 10 11 5 5-4-36-3-28-2-21v-21l-1-5-2-17-1-20h1z" fill="#262924"/>
<path transform="translate(1293,1872)" d="m0 0 14 2 12 4 10 7 7 5 8 2h111l16-12 13-5 7-2h19l16 5 10 4-4 5-9-3-13-4-13-1-14 3-12 6-6 5-1 2-132-1-10-7-8-4-9-3h-20l-12 4-10 6-7 5h-11v-3l10-4 11-8 12-5 7-2z" fill="#333531"/>
<path transform="translate(285,282)" d="m0 0h1l-1 9-3 5-4 14-6 33-1 18v337h-1l-2-14v-19l1-27-2-1-1-279 1-12 3-9 6-29 4-13z" fill="#868686"/>
<path transform="translate(1281,963)" d="m0 0h3v2l3-1 7 8 2 9 1 642 3 14 5 12-1 2-5-8-4-13-1-189v-416l-1-44-2-7-10-10z" fill="#868686"/>
<path transform="translate(550,352)" d="m0 0h1l2 12v8l6 1-1 4v12l2 20 3 20 4 43-5 5-7-3-7-6-7-8-9-10v-2h-2l-9-11-2-4h-2l-9-11-9-10-7-6-3-1 1-3 4-1 8 7 12 13 9 11 12 14 15 16 4 4 7 3-2-26-5-43-1-16v-11l-3-1-1-6h-1l1-11z" fill="#668F2E"/>
<path transform="translate(1038,364)" d="m0 0h1l1 10h2l2 19 3 32 3 27 1 4v12l-4 1-8-6-3-3v-2h-2l-9-11-11-12-7-8-9-10-12-14-1-4-4-2-3-5 4 1 8 6v2h2l7 8v2h2l8 10 12 13 9 11 2 4h2l7 8 3 1-1-26-2-15-3-12-1-27z" fill="#272A25"/>
<path transform="translate(1040,373)" d="m0 0h10l-2 4v12l4 34 2 19 3 23-1 8-3 3-4 1-9-7-12-13-11-13-1-3h-2l-8-10-11-12-12-13-4-2v-3l6-2 3 5 9 10 7 8 10 11 9 11 11 12v2h2l6 7 5 3h3v-12l-3-19-3-37-2-13v-13z" fill="#668F2E"/>
<path transform="translate(1350,398)" d="m0 0 2 4 3 9 1 34-1 243-3 12-4 10-1-3 4-12 1-7v-55l-1-215-1-11z" fill="#868686"/>
<path transform="translate(1289,1901)" d="m0 0h10l12 5 6 4 7 14 1 6-2 10-7 10-9 6-8 3-13-2-10-5-6-8-4-11v-8l3-8 7-9 9-6zm1 5-10 5-5 6-4 8v8l4 11 8 7 8 3h9l10-5 7-8 2-6v-10l-5-10-7-6-9-3z" fill="#668F2E"/>
<path transform="translate(471,1894)" d="m0 0h12l9 4 8 7 4 6 3 9-1 10-4 9-4 5-10 6-6 2h-7l-13-5-8-7-5-10v-14l5-10 5-5 9-6zm2 5-10 5-7 8-2 4v13l4 8 4 5 8 4 3 1h9l9-4 6-5 4-9 1-7-2-9-6-8-9-5-3-1z" fill="#668F2E"/>
<path transform="translate(1495,1900)" d="m0 0h7l11 4 8 6 7 11 1 3v12l-5 10-4 5-11 7-4 1h-8l-9-3-8-6-4-5-5-9v-10l4-10 5-8 7-5zm0 6-10 5-6 8-3 7v9l5 10 8 7 6 2h11l8-4 6-5 4-9v-10l-4-10-8-7-7-3z" fill="#668F2E"/>
<path transform="translate(473,1899)" d="m0 0h9l9 4 6 5 4 8 1 7-3 12-6 7-8 4-3 1h-9l-9-4-5-5-4-6-1-3v-13l5-8 7-6zm0 5-6 3-5 6-2 5v10l5 9 5 3 11 1 7-3 5-5 2-5v-8l-3-9-6-5-5-2z" fill="#272A25"/>
<path transform="translate(1290,1906)" d="m0 0h8l10 4 6 5 5 10v10l-4 9-8 7-7 3h-9l-10-4-7-8-3-9v-8l6-11 6-5zm-1 5-7 4-4 6-1 3v9l2 7 7 6 5 2 11-1 7-5 3-9v-8l-4-8-6-5-4-1z" fill="#262924"/>
<path transform="translate(679,1894)" d="m0 0h8l9 4 6 4 5 6 4 11v8l-3 10-5 7-10 6-5 2h-7l-10-3-9-6-5-7-2-6v-12l3-9 7-9 10-5zm0 5-10 4-7 8-3 6v12l5 9 5 5 8 4h11l9-4 7-8 2-4 1-11-3-9-6-7-8-4-3-1z" fill="#668F2E"/>
<path transform="translate(679,1899)" d="m0 0h8l9 4 6 5 4 7 1 10-2 8-6 8-5 4-6 2h-11l-8-4-5-5-5-9v-12l6-10 6-5zm-1 5-8 4-3 4-3 6v7l3 9 5 5 4 2h11l8-4 6-7 1-3v-9l-6-9-3-3-6-2z" fill="#262924"/>
<path transform="translate(1495,1906)" d="m0 0h10l10 5 6 6 3 9v10l-5 10-8 6-5 2h-11l-7-3-8-7-4-9v-9l6-12 6-5zm0 5-7 3-5 6-1 2v14l3 6 10 6h11l10-6 3-7v-9l-2-6-3-4h-2l-1-3-6-2z" fill="#262924"/>
<path transform="translate(1153,1817)" d="m0 0h7l-1 2-4 1-16 1-64 1-142-1h-90l-10-1v-1h302z" fill="#868686"/>
<path transform="translate(470,1866)" d="m0 0h13l14 3 14 8 7 6 2 2-4 4-3 1-1-4-9-7-8-4-9-2h-15l-12 3-10 5-10 7h-10v-3l9-4 11-8 12-5z" fill="#2A2E27"/>
<path transform="translate(1491,1873)" d="m0 0h19l16 5 10 4-4 5-9-3-13-4-13-1-14 3-12 6-6 5-1 2-22-1v-1l13-1 16-12 13-5z" fill="#272A25"/>
<path transform="translate(1285,1879)" d="m0 0h20l14 5 12 8 2 2v6l-8-6-14-8-12-2-15 1-8 3-10 6-9 6-1-3-2-2 9-6 12-7z" fill="#668F2E"/>
<path transform="translate(471,1872)" d="m0 0h15l11 3 9 5 6 5v8l-5-5v-2h-2v-2l-6-2-5-3-16-2-13 2-11 4-14 10-2-4 5-5 11-7 11-4z" fill="#668F2E"/>
<path transform="translate(1497,1878)" d="m0 0 13 1 18 6 5 1 1 5-10-2-13-4-5-1h-10l-11 2-12 6-14 14h-2v2h-2l1-3 3-2 5-10 10-8 13-5z" fill="#66902E"/>
<path transform="translate(674,1872)" d="m0 0h16l20 6 6 2-1 4-9-2-11-4-6-1h-11l-13 3-11 6-7 6h-2l-1 3h-1v-7l14-10 11-5z" fill="#668F2E"/>
<path transform="translate(1241,1921)" d="m0 0h3l4 8-1 11-2 2h-6l-3-2v-2l-3-1-4-8v-5l1-1 9-1z" fill="#60862D"/>
<path transform="translate(424,1914)" d="m0 0h2l4 7v8l-3 5-5 1-6-4-3-5-3-10h11z" fill="#61872D"/>
<path transform="translate(1447,1921)" d="m0 0h3l3 7v9l-3 5-7-1-5-5-3-12 1-1 9-1z" fill="#668F2E"/>
<path transform="translate(630,1914)" d="m0 0 4 5v12l-4 4-5-1-5-6-4-8v-3l13-2z" fill="#668E2F"/>
<path transform="translate(1325,730)" d="m0 0m-1 1 1 3-16 7-4 1-44 1h-56l2-2 68-1 22-1 6-1h5l1-2 13-4z" fill="#323530"/>
<path transform="translate(1020,892)" d="m0 0h82l38 1 26 2 4 2-26-1-21-1-103-2z" fill="#636463"/>
<path transform="translate(1305,269)" d="m0 0 4 4 12 21 8 15 6 15 4 13v2h-2l-9-22-11-23-10-17-1-4z" fill="#828282"/>
<path transform="translate(1360,906)" d="m0 0h66l36 1 2 2h-30l-78-1z" fill="#5A5B59"/>
<path transform="translate(271,698)" d="m0 0 3 1 5 13 12 14 4 2v2l6 2 14 6 9 1 13 2v1h-16l-12-3-14-6-10-8-9-11-5-13z" fill="#4A4C49"/>
<path transform="translate(180,906)" d="m0 0h60l37 1 4 2h-34l-71-1z" fill="#5B5C5A"/>
<path transform="translate(809,1119)" d="m0 0h29l3 1v2l4-1v2l6 1 6 3-4 1-21-5h-21l-19 5-3-1 4-3 15-4z" fill="#1F221E"/>
<path transform="translate(517,892)" d="m0 0h65v1l-21 1h-74v-1z" fill="#868686"/>
<path transform="translate(1211,1834)" d="m0 0 2 2v11l-1 10v17l-2-3-2-13v-11l2-10z" fill="#393B37"/>
<path transform="translate(544,307)" d="m0 0h1l1 5h1l1 13v27h-1l-1-18-2-2-2-14v-5h1z" fill="#868686"/>
<path transform="translate(830,1551)" d="m0 0 2 1-4 3-10 1-12 2h-11l-17-3-4-2 14 1 7 1h16z" fill="#868686"/>
<path transform="translate(809,1119)" d="m0 0h29l3 1v2l4-1v2l6 1 6 3-4 1-21-5-1-2h-23z" fill="#555654"/>
<path transform="translate(1325,730)" d="m0 0m-1 1 1 3-16 7-4 1h-9l4-4h8l1-2 13-4z" fill="#41433F"/>
<path transform="translate(1390,1809)" d="m0 0h85v1h-85z" fill="#868686"/>
<path transform="translate(1173,785)" d="m0 0v3l-28 28h-2v2l-3-1 14-13 7-8 4-5 5-3z" fill="#565855"/>
<path transform="translate(543,325)" d="m0 0h1l1 5 2 4 1 28-2-3-2-16-1-10z" fill="#272A25"/>
<path transform="translate(285,282)" d="m0 0h1l-1 9-3 5-4 14-2 12-2 1 1-10 4-16z" fill="#787877"/>
<path transform="translate(1307,1654)" d="m0 0 8 6 9 8 5 3 4 2-3 1v5l-2-1v-5l-9-5-12-12z" fill="#383B37"/>
<path transform="translate(300,251)" d="m0 0 1 2-8 15-3 10-1 2h-2l-1 2 1-5 7-18z" fill="#727372"/>
<path transform="translate(823,1554)" d="m0 0 4 2-15 3h-18l-11-2 4-1 8 1h11l12-2z" fill="#272A25"/>
<path transform="translate(733,1524)" d="m0 0 14 14 11 8-3 1-6-5-4-2v-2l-4-2-8-9z" fill="#3E413D"/>
<path transform="translate(550,352)" d="m0 0h1l2 12v8l-3-1-1-5h-1l1-11z" fill="#848682"/>
<path transform="translate(1297,739)" d="m0 0m-9 0 9 1-1 2h-22l1-2z" fill="#272A25"/>
<path transform="translate(311,737)" d="m0 0 11 2 15 2v1h-16l-10-2z" fill="#515350"/>
<path transform="translate(803,1121)" d="m0 0 8 1v1l-19 5-3-1 4-3z" fill="#727271"/>
<path transform="translate(624,1917)" d="m0 0 5 1 1 6-1 3h-3l-2-4z" fill="#272A25"/>
<path transform="translate(963,130)" d="m0 0h41v1h-41z" fill="#868686"/>
<path transform="translate(1211,1834)" d="m0 0 2 2v9h-2l-1 5h-1v-10z" fill="#222421"/>
<path transform="translate(1183,771)" d="m0 0v3l-8 11-2-3 4-6h2l2-4z" fill="#545553"/>
<path transform="translate(296,730)" d="m0 0 14 6 1 3-10-3-4-2z" fill="#434542"/>
<path transform="translate(1293,253)" d="m0 0 5 5 6 8-2 4-3-5-6-9z" fill="#707170"/>
<path transform="translate(1441,1923)" d="m0 0 4 1 1 1v6h-4l-1-2z" fill="#272A25"/>
<path transform="translate(1195,751)" d="m0 0h2l-2 5-6 9-2-3z" fill="#525451"/>
<path transform="translate(1155,803)" d="m0 0 2 1-12 12h-2v2l-3-1z" fill="#868686"/>
<path transform="translate(494,654)" d="m0 0 11 3 3 2-5 1-10-4z" fill="#393B38"/>
<path transform="translate(551,143)" d="m0 0h7v1l-9 3-3 2-3-1 2-1-2-1v-2z" fill="#444643"/>
<path transform="translate(1325,730)" d="m0 0m-1 1 1 3-9 4h-2l1-3z" fill="#494B48"/>
<path transform="translate(1305,269)" d="m0 0 4 4 4 8-2 2-4-6-1-4z" fill="#868686"/>
<path transform="translate(544,666)" d="m0 0h10l2 2-7 1-5-2z" fill="#313430"/>
<path transform="translate(1486,1810)" d="m0 0h20v1h-20z" fill="#868686"/>
<path transform="translate(1084,133)" d="m0 0h10v1h-10z" fill="#868686"/>
<path transform="translate(1094,134)" d="m0 0h9v1h-9z" fill="#868686"/>
<path transform="translate(1364,1809)" d="m0 0h8v1h-8z" fill="#868686"/>
<path transform="translate(1532,1821)" d="m0 0 4 2-1 2z" fill="#5D5E5C"/>
<path transform="translate(1103,135)" d="m0 0h7v1h-7z" fill="#868686"/>
<path transform="translate(406,583)" d="m0 0 3 2-1 2z" fill="#868686"/>
<path transform="translate(1512,1811)" d="m0 0h5v1h-5z" fill="#868686"/>
<path transform="translate(1379,1809)" d="m0 0 4 1z" fill="#868686"/>
<path transform="translate(1142,419)" d="m0 0 2 1-1 2z" fill="#B4CD8D"/>
<path transform="translate(1458,1975)" d="m0 0 3 1z" fill="#D3D3D1"/>
<path transform="translate(1386,1809)" d="m0 0 2 1z" fill="#868686"/>
<path transform="translate(1376,1809)" d="m0 0 2 1z" fill="#868686"/>
<path transform="translate(449,904)" d="m0 0 2 1z" fill="#868686"/>
<path transform="translate(482,894)" d="m0 0 2 1z" fill="#868686"/>
<path transform="translate(405,581)" d="m0 0" fill="#868686"/>
<path transform="translate(1148,428)" d="m0 0" fill="#D3D3D1"/>
<path transform="translate(1146,425)" d="m0 0" fill="#D3D3D1"/>
<path transform="translate(1145,423)" d="m0 0" fill="#D3D3D1"/>
<path transform="translate(1341,346)" d="m0 0" fill="#868686"/>
<path transform="translate(437,337)" d="m0 0 2 1z" fill="#272A25"/>
<path transform="translate(1112,136)" d="m0 0 2 1z" fill="#868686"/>
<path transform="translate(1537,1826)" d="m0 0" fill="#868686"/>
<path transform="translate(1536,1825)" d="m0 0" fill="#868686"/>
<path transform="translate(1531,1820)" d="m0 0" fill="#868686"/>
<path transform="translate(1530,1819)" d="m0 0" fill="#868686"/>
<path transform="translate(1362,1809)" d="m0 0" fill="#868686"/>
<path transform="translate(758,1261)" d="m0 0" fill="#868686"/>
<path transform="translate(788,1127)" d="m0 0" fill="#868686"/>
<path transform="translate(335,991)" d="m0 0" fill="#868686"/>
<path transform="translate(350,969)" d="m0 0" fill="#868686"/>
<path transform="translate(1285,963)" d="m0 0" fill="#868686"/>
<path transform="translate(1284,962)" d="m0 0" fill="#868686"/>
<path transform="translate(1283,961)" d="m0 0" fill="#868686"/>
<path transform="translate(1282,960)" d="m0 0" fill="#868686"/>
<path transform="translate(1281,959)" d="m0 0" fill="#868686"/>
<path transform="translate(447,905)" d="m0 0" fill="#868686"/>
<path transform="translate(453,903)" d="m0 0" fill="#868686"/>
<path transform="translate(456,902)" d="m0 0" fill="#868686"/>
<path transform="translate(412,591)" d="m0 0" fill="#868686"/>
<path transform="translate(410,588)" d="m0 0" fill="#868686"/>
<path transform="translate(409,587)" d="m0 0" fill="#868686"/>
<path transform="translate(404,580)" d="m0 0" fill="#868686"/>
<path transform="translate(1150,432)" d="m0 0" fill="#D3D3D1"/>
<path transform="translate(1149,430)" d="m0 0" fill="#D3D3D1"/>
<path transform="translate(1147,427)" d="m0 0" fill="#D3D3D1"/>
<path transform="translate(1144,422)" d="m0 0" fill="#95C74A"/>
<path transform="translate(1141,418)" d="m0 0" fill="#95C74A"/>
<path transform="translate(1223,401)" d="m0 0" fill="#868686"/>
<path transform="translate(1221,397)" d="m0 0" fill="#868686"/>
<path transform="translate(1219,392)" d="m0 0" fill="#868686"/>
<path transform="translate(1218,390)" d="m0 0" fill="#868686"/>
<path transform="translate(1217,388)" d="m0 0" fill="#868686"/>
<path transform="translate(1342,351)" d="m0 0" fill="#868686"/>
<path transform="translate(549,349)" d="m0 0" fill="#868686"/>
<path transform="translate(1304,268)" d="m0 0" fill="#868686"/>
<path transform="translate(1292,252)" d="m0 0" fill="#868686"/>
<path transform="translate(1290,249)" d="m0 0" fill="#868686"/>
<path transform="translate(1289,248)" d="m0 0" fill="#868686"/>
<path transform="translate(1288,247)" d="m0 0" fill="#868686"/>
<path transform="translate(1282,239)" d="m0 0" fill="#868686"/>
<path transform="translate(1281,238)" d="m0 0" fill="#868686"/>
<path transform="translate(1280,237)" d="m0 0" fill="#868686"/>
<path transform="translate(1279,236)" d="m0 0" fill="#868686"/>
<path transform="translate(1278,235)" d="m0 0" fill="#868686"/>
</svg>
