<?xml version="1.0" encoding="UTF-8"?>
<svg version="1.1" viewBox="0 0 1000 1000" width="1000" height="1000" xmlns="http://www.w3.org/2000/svg">
<path transform="translate(330,214)" d="m0 0h341l17 1h42l25 2 17 4 12 3 16 5 12 5 16 7 9 5 15 9 16 11 10 8 9 7v2l4 2 16 16 9 11 10 13 10 15 11 19 7 16 6 16 6 18 4 18 4 30 1 16v216l-1 13-6 16-7 9-10 9-9 4-11 4-81 1-8 2-13 20-8 12h-2l-1 4h-2l-1 3-18 18h-2l-2 4-18 13-15 9-8 4-17 7-10 4-17 3-11 3-7 1h-379l-23-5-11-2-18-7-20-9-15-10-11-8-11-9-4-5-6-5-7-8-12-16-6-10-7-10-2-2-10-1h-65l-16-2-13-5-9-6-5-6-4-4-5-10-4-11v-300l6-31 4-15 13-30 7-12 7-10 10-14 4-5 5-4 5-5 4-5 3-3h2v-2l10-8 12-8 10-7 15-8 8-3 13-5 6-3 22-5 10-2 11-1h27l9 2 14 6h8l21-5 10-2zm-58 135-5 5v9l6 49 3 7 4 3 21 2 12 2 8 4 8 3 10 7 9 7 3 3h2l2 4 5 6 3 5 4 7 5 10 3 13 2 7v25l-6 21-4 8-4 7-6 9-3 3v2l-4 2-2 4-5 2v2l-5 2-4 2v2l-6 2-8 4-9 3-16 4h-21l-20-5-17-8-10-7-12-11-8-11-5-8-6-15-3-18v-20l4-19 7-15 7-10 5-6 5-5 2-3-6-9-12-14-7-9h-2l-2-4-10-11-2-3-4-2h-5l-5 3-4 5-5 5-7 8-7 11-6 8-5 12-7 16-4 18-2 6-2 16v27l3 19 5 20 10 23 4 7 10 15 1 2h2l2 5 19 19 8 7 18 12 9 5 20 8 7 3 20 4 9 2h37l33-7 9-4 11-5 8-3 10-7 15-10 8-7 10-10 10-12 7-11 7-10 5-12 6-14 2-4 2-15 3-10 1-7v-35l-4-16-3-17-4-8-2-7-7-14-12-18-4-7-4-4h-2l-2-4h-2v-2h-2l-2-4h-2l-2-4-11-9-11-7-16-10-8-3-10-4-12-4-25-5zm426 0-4 4v19l2 14 4 31 4 5 23 2 13 2 18 9 6 4 9 7 10 10 7 10 5 10 5 11 4 22v13l-4 20-7 17-9 12v2h-2l-7 8-10 8-6 4-5 3-7 3-9 3-17 4h-20l-10-3-10-2-11-5-6-3-9-6h-2v-2l-5-3-4-5-4-4-6-8-4-6-4-10-2-3-5-21v-23l6-22 7-13 8-11 1-3 3-1 4-6-2-7-3-4h-2l-2-5-3-1-2-4-7-8-9-10-9-11-8-5-9 8v2l-4 2-7 8-14 21-4 7-3 8-3 6-3 9-2 3-4 22-2 7v40l3 10 3 19 4 8 4 10 5 12 6 9 7 10 6 9h2l2 4 4 2 2 4 3 1 2 4 5 5 16 11 14 9 24 10 9 3 17 3 9 2h37l18-4 11-2 20-8 11-5 11-7 10-7 9-7 21-21 14-21 4-7 6-14 4-9 5-21 2-10 1-24-2-28-4-14-3-11-12-27-7-10-10-14-4-5-6-5-13-13-15-10-14-9-13-5-16-6-21-4-8-2z" fill="#010101"/>
<path transform="translate(273,412)" d="m0 0 2 4 5 5 21 2 12 2 8 4 8 3 10 7 9 7 5 4 8 10 3 5 4 7 5 10 3 13 2 7v25l-6 21-4 8-4 7-6 9-4 5-5 4-4 4h-2v2l-6 4h-3v2l-14 7-9 3-16 4h-21l-20-5-17-8-10-7-12-11-9-12-5-8-6-15-3-18v-20l4-19 7-15 7-10 6-7h2l2-4 2-3-2-5 5 5 2 5 6 7v2h2l4 6 5 5v2l3 1 3 4v2l3 1 4 5 2 1 3 5 4 4v2l4 2 4 5v2l10 3v-16l-2-22-2-11-2-28-3-9-2-5z" fill="#8BC53E"/>
<path transform="translate(700,417)" d="m0 0 4 4 23 2 13 2 18 9 6 4 9 7 11 11 7 10 5 10 5 11 4 22v13l-4 20-7 17-10 14h-2l-2 4-7 7-8 6-6 4-5 3-7 3-9 3-17 4h-20l-10-3-10-2-11-5-6-3-11-7v-2l-5-2-4-5-5-5v-2l-3-1-7-11-4-10-2-3-5-21v-23l6-22 7-13 8-11 7-8 1-7 4 4 4 7 12 14 4 5 5 5 9 10 3 4v2l3 1 4 5v2h2l5 6 5 3h4l1-7-3-23-1-3-2-28-2-18-4-10z" fill="#8BC53E"/>
</svg>
