<?xml version="1.0" encoding="UTF-8"?>
<svg version="1.1" viewBox="0 0 1920 1080" width="1920" height="1080" xmlns="http://www.w3.org/2000/svg">
<path transform="translate(748,380)" d="m0 0h37l21 5 12 5 9 5 13 9v2l4 2 9 10 4 5 4 2 1-32 5-5 6-1h27l7 2 3 5v299l-4 32-6 19-3 10-9 17-9 13-13 13-10 7-12 7-12 5-11 4-27 5-14 1h-27l-23-2-11-3-9-2-23-9-15-9-12-11-5-5-8-10-5-9-4-11-1-5v-10l2-4 2-1h42l4 4 5 12 4 6 5 5 8 7 8 5 17 6 11 3 10 1h26l12-2 14-4 9-5 8-6 10-9 8-9 8-16 6-16 4-23 1-13v-25l-2-3-5 6-8 10-7 8-11 8-15 8-18 6-18 3-16 1-22-2-16-3-16-5-19-10-13-11-8-7-7-7-9-12-10-18-6-12-6-20-5-32v-38l3-23 4-18 4-14 7-15 6-12 8-11 7-9 7-8 8-7 16-11 16-8 17-6zm7 45-9 3-10 2-17 9-17 16-8 12-7 14-4 11-4 19-1 10v36l2 17 3 16 10 24 9 14 7 7 5 6 10 7 13 6 20 4h18l21-4 13-6 11-7 2-4 4-2 1-3 4-2 9-13 5-9 8-19 4-16 3-33-1-19-2-18-5-18-5-11-5-10-8-11-13-13-16-9-5-2-12-3-3-1z"/>
<path transform="translate(201,380)" d="m0 0h49l29 5 8 3 13 5 11 7 12 11 7 10 4 9 3 8 3 15 1 187 2 14 4 4 3 1 16 1 5 4 1 2v29l-5 6-8 3-15 2h-14l-14-3-9-5-6-5-5-8-5-13-2-2-5-1-8 6-9 7-16 10-18 7-23 5-19 2h-19l-25-3-17-5-13-6-11-7-6-5-11-15-5-11-4-15-1-8v-25l4-20 4-10 6-10 12-13 9-7 17-9 13-5 14-4 16-4 18-3 9-2 28-4 16-2 19-5 14-7 7-8 3-10v-15l-3-13-5-9-8-8-7-4-9-4-18-4h-35l-22 5-12 5-11 7-3 4h-2l-2 5-5 10-3 15-3 5-3 2h-40l-5-4-1-2 1-13 4-15 4-11 5-9 6-8 14-15 14-9 13-6 10-4 14-4zm78 164-26 6-35 5-16 2-21 4-15 5-8 4-13 10-8 11-4 15v17l3 11 6 9 7 7 12 6 10 3 7 1h33l18-3 16-6 14-8 13-11 10-14 5-13 2-16v-34l-1-7-3-3z"/>
<path transform="translate(1712,380)" d="m0 0h39l20 4 17 6 16 9 12 9 10 9 7 7 10 14 10 18 10 24 4 15 2 8 4 31v18l-5 6-5 1-218 1-4 2-1 2v14l3 16 4 13 8 15 7 9 6 7 14 10 16 7 12 3 12 2h26l18-3 13-5 9-5 10-9 7-9 5-10 4-9 2-5 4-4 6-1h32l5 2 2 4-1 13-6 14-8 16-8 11-14 16-12 9-17 9-18 6-10 3-26 3h-21l-22-2-24-6-13-5-17-10-10-8-10-9-11-12-7-11-10-19-7-21-3-11-3-19-2-13v-39l6-33 8-22 7-13 9-15 11-13 13-13 17-12 15-8 10-4 12-4zm2 45-19 5-12 6-14 10-10 10-7 11-7 14-5 17v10l4 4 2 1h165l5-4 1-7-4-16-7-16-7-11-9-10-8-7-13-8-12-5-15-4z"/>
<path transform="translate(1357,380)" d="m0 0h38l25 5 21 9 10 7 12 9 13 12 9 12 7 11 8 16 9 24 3 14 2 9 3 25v20l-5 5-5 1-218 1-3 1-1 3v15l2 13 4 13 8 16 10 13 9 8 11 7 11 5 9 3 18 3h26l18-3 15-6 11-7 8-8 7-11 6-14 4-8 3-2 5-1h30l7 2 2 3v11l-10 25-9 15-11 13-8 8-11 8-9 5-15 7-20 6-27 3h-21l-27-3-21-6-16-7-10-6-13-9-5-5-6-7-5-5-10-14-8-16-3-5-5-15-4-14-4-21-2-22v-25l3-22 4-18 7-18 7-14 13-21 12-13 5-5 16-12 17-10 12-5 12-4zm2 45-19 5-9 4-15 10-6 5v2l-3 1-9 13-5 9-4 9-4 13v13l5 4h165l5-3 1-2v-9l-4-15-7-16-8-11-7-8-9-7-12-8-12-5-16-4z"/>
<path transform="translate(1163,380)" d="m0 0h19l4 4 1 2v42l-3 5-12 2-25 4-17 6-10 5-12 9-8 8-7 10-8 16-6 18-4 26-1 154-2 5-4 3-33 1-9-2-3-4v-301l2-4 7-2h29l7 2 2 3 1 54h2l4-4 4-5 4-7 4-6h2l2-4 9-10 8-8 10-7 14-7 11-4z"/>
<path transform="translate(477,387)" d="m0 0h29l9 2 3 7v128l-1 170-5 5-34 1-8-2-3-4-1-4v-295l2-5 3-2z"/>
<path transform="translate(748,380)" d="m0 0h37l21 5 12 5 9 5 13 9v2l4 2 9 10 4 5 4 2 1-32 5-5 6-1h27l7 2 3 5v299l-4 32-6 19-3 10-9 17-9 13-13 13-10 7-12 7-12 5-11 4-27 5-14 1h-27l-23-2-11-3-9-2-23-9-15-9-12-11-5-5-8-10-5-9-4-11-1-5v-10l2-4 2-1h42l4 4 5 12 4 6 5 5 8 7 8 5 17 6 11 3 10 1h26l12-2 14-4 9-5 8-6 10-9 8-9 8-16 6-16 4-23 1-13v-25l-2-3-5 6-8 10-7 8-11 8-15 8-18 6-18 3-16 1-22-2-16-3-16-5-19-10-13-11-8-7-7-7-9-12-10-18-6-12-6-20-5-32v-38l3-23 4-18 4-14 7-15 6-12 8-11 7-9 7-8 8-7 16-11 16-8 17-6zm9 1-14 3-16 2-6 3-7 2-7 3-3 1v2l-7 2-5 4-3 1-3 3-10 8-15 15-1 4-3 1-2 4-2 1-3 6-2 2-3 8-6 12-5 17-3 14-2 12-2 22v25l3 28 5 21 4 13 3 4 3 7 5 8 3 6 3 3 7 9h2l1 4 8 7 1 2 5 3 5 4h2v2l8 5 7 3 12 5 15 4 7 2 19 1h16l15-1 9-3 12-3 11-5 8-4 7-4 3-3 7-6 1-3 4-4 5-9 4-5 4-1 2 1 1 15-2 41-3 8-2 12-2 2-3 9-5 9-5 8-7 9-10 8-9 6-7 4-8 3-10 2-9 1-2 1h-24l-2-1-18-2-6-3-8-2-2-2-7-2-1-2-6-3-10-8-2-4-3-3-3-6-3-9-5-4h-36l-5 5v8l3 7 2 9 3 4 2 5 11 13 9 7 2 3 3 1 3 3 8 5 7 4 9 3 5 2 7 2 3 2 16 2 4 2 21 1h17l22-1 3-2 18-2 5-3 10-2 5-3 7-3 12-7 15-13 5-5 5-7 3-3 4-6 1-6 3-1 3-9 2-5 2-9 3-9 4-27 1-21v-284l-2-6h-37l-3 5-1 9v25h-6l-5-6-9-11-10-9-5-4-6-3-11-6-9-3-7-2-12-2-7-2z" fill="#484848"/>
<path transform="translate(201,380)" d="m0 0h49l29 5 8 3 13 5 11 7 12 11 7 10 4 9 3 8 3 15 1 187 2 14 4 4 3 1 16 1 5 4 1 2v29l-5 6-8 3-15 2h-14l-14-3-9-5-6-5-5-8-5-13-2-2-5-1-8 6-9 7-16 10-18 7-23 5-19 2h-19l-25-3-17-5-13-6-11-7-6-5-11-15-5-11-4-15-1-8v-25l4-20 4-10 6-10 12-13 9-7 17-9 13-5 14-4 16-4 18-3 9-2 28-4 16-2 19-5 14-7 7-8 3-10v-15l-3-13-5-9-8-8-7-4-9-4-18-4h-35l-22 5-12 5-11 7-3 4h-2l-2 5-5 10-3 15-3 5-3 2h-40l-5-4-1-2 1-13 4-15 4-11 5-9 6-8 14-15 14-9 13-6 10-4 14-4zm7 1-11 3-21 2-7 3-9 2-6 3-5 2-9 5-6 3v2l-5 2-5 4-6 5-2 4-4 4-3 1-2 7-3 3-3 8-2 6-4 16v13l1 2 3 1h36l3-2 4-11 2-10 5-9 4-6 9-7 7-4 7-3 13-3 3-2 8-1h41l10 2 4 2 9 2 5 3 9 6 5 6 4 6 4 13v23l-5 10-4 5-6 4-11 5-9 3-30 5-25 2-4 2-18 2-7 3-14 2-6 3-10 2-7 3-8 4-11 6-4 3-3 1-7 8-2 1-2 4-3 3-5 8-4 8-3 16-1 1v35l3 9 2 9 5 10 7 10 6 7 12 8 11 5 11 4 10 2 6 2 17 1h19l16-1 9-3 11-1 10-4 16-6 10-7 9-6 8-7 9-1 5 5 2 3 2 9h2l2 6 8 7 9 4 2 1 10 1h12l13-1 11-5 1-1v-31l-1-1-16-1-9-5-4-15-1-13-1-182-1-9-3-6-3-8-7-10-6-7-6-5-5-4-6-3-13-6-9-2-2-2-21-2-7-2-10-1z" fill="#494949"/>
<path transform="translate(1712,380)" d="m0 0h39l20 4 17 6 16 9 12 9 10 9 7 7 10 14 10 18 10 24 4 15 2 8 4 31v18l-5 6-5 1-218 1-4 2-1 2v14l3 16 4 13 8 15 7 9 6 7 14 10 16 7 12 3 12 2h26l18-3 13-5 9-5 10-9 7-9 5-10 4-9 2-5 4-4 6-1h32l5 2 2 4-1 13-6 14-8 16-8 11-14 16-12 9-17 9-18 6-10 3-26 3h-21l-22-2-24-6-13-5-17-10-10-8-10-9-11-12-7-11-10-19-7-21-3-11-3-19-2-13v-39l6-33 8-22 7-13 9-15 11-13 13-13 17-12 15-8 10-4 12-4zm9 1-12 3-16 2-6 3-8 2-2 2-8 3-9 5-11 8-7 4-3 3-8 7v2l-4 2-5 6v2l-3 1-6 11-4 6-9 18-5 15-2 7-1 1-2 19-3 9v37l3 11 2 19 2 4 3 13 4 13 4 9 6 11 5 8 3 6 5 5h2l2 4 5 5 6 5 7 7 7 4 16 8 7 3 12 4 12 2 5 2 19 1h21l16-1 11-3 10-2 3-2 9-2 20-10 9-7 3-1 2-4 5-5 12-14 3-6 3-5v-2h2l3-9 2-2 3-10 2-4v-8l-5-2h-35l-6 3-3 10-2 2-3 9-4 6v2h-2l-2 5-3 1-5 5-10 7-7 3-16 5-7 1h-34l-23-5-9-4-7-4-10-8-8-7-7-8-6-9-5-10-4-11-3-16-1-4v-12l4-6 5-3 222-1 4-6v-11l-2-10-2-26-3-6-1-11-4-8-2-5-2-3-2-7-5-10-6-9-3-6-4-6-3-3-2-3h-2l-2-4-5-5h-2l-2-4-12-9-5-4-7-2v-2l-9-3-2-2-9-2-2-2-21-3-8-2z" fill="#484848"/>
<path transform="translate(1357,380)" d="m0 0h38l25 5 21 9 10 7 12 9 13 12 9 12 7 11 8 16 9 24 3 14 2 9 3 25v20l-5 5-5 1-218 1-3 1-1 3v15l2 13 4 13 8 16 10 13 9 8 11 7 11 5 9 3 18 3h26l18-3 15-6 11-7 8-8 7-11 6-14 4-8 3-2 5-1h30l7 2 2 3v11l-10 25-9 15-11 13-8 8-11 8-9 5-15 7-20 6-27 3h-21l-27-3-21-6-16-7-10-6-13-9-5-5-6-7-5-5-10-14-8-16-3-5-5-15-4-14-4-21-2-22v-25l3-22 4-18 7-18 7-14 13-21 12-13 5-5 16-12 17-10 12-5 12-4zm9 1-13 3-16 2-5 3-8 2-10 5-9 5-6 3-3 3-13 9-7 6-5 6v2l-3 1-2 4-3 3-5 9-4 6-3 5-4 8-4 10-2 3-2 9-2 2-2 17-3 7v54l3 8 2 18 3 6 1 8 3 4 2 9 3 5 5 10 1 3 2 1 3 6 9 12 9 10 7 7 11 7 9 5 12 6 10 3 5 2 12 2 5 2 19 1h21l16-1 22-5 3-2 9-2 5-3 14-7 5-3 2-1v-2l6-2 5-5 2-4 4-4 8-11 3-6 5-9 4-9 2-5 2-8 1-1v-7l-4-2h-34l-6 3-3 8-6 13-4 7-8 8v2l-5 2v2l-6 2-4 3-8 4-12 3-10 2h-33l-26-6-10-5-12-8-3-3-6-5-5-6-2-3h-2l-2-6-3-5-4-8-5-17-1-14-1-3v-9l3-6 5-3 219-1 4-2 1-3v-12l-2-30-2-3-2-15-3-6-2-9-3-4-2-7-3-7-6-12-3-5-6-9-2-1-3-5h-2l-2-4-7-6-3-3-12-9-5-4-16-8-6-2-7-3-20-3-8-2z" fill="#4A4A4A"/>
<path transform="translate(642,459)" d="m0 0 1 4-3 5-5 17-3 14-2 12-2 22v25l3 28 5 21 4 13 3 4 3 7 5 8 2 6 3 1 4 6 6 7v2l4 2 5 5v2l4 1 8 6v2l5 2 10 5 12 5 15 4 7 2 19 1h16l15-1 9-3 12-3 11-5 8-4 4-3h3l1-3 4-2 4-4 2-4 3-3 5-9 5-6 4-1 3 2 1 15-2 41-3 8-2 12-2 2-3 9-5 9-5 8-8 10-10 8-9 6-7 4-8 3-10 2-9 1-2 1h-24l-2-1-18-2-6-3-8-2-2-2-8-3v-2l-5-1-9-8-3-2-1-3-4-4-3-6-2-7v-2l-3-1v-2h-40l-2 4v8l3 7 2 9 3 4 2 5 11 13 9 7 1 2 4 2v2l6 2 4 3 7 4 9 3 5 2 7 2 4 4-7-1-23-9-15-9-12-11-5-5-8-10-5-9-4-11-1-5v-10l2-4 2-1h42l4 4 5 12 4 6 5 5 8 7 8 5 17 6 11 3 10 1h26l12-2 14-4 9-5 8-6 10-9 8-9 8-16 6-16 4-23 1-13v-25l-2-3-5 6-8 10-7 8-11 8-15 8-18 6-18 3-16 1-22-2-16-3-16-5-19-10-13-11-8-7-7-7-9-12-10-18-6-12-6-20-5-32v-38l3-23 4-18 4-14 5-10z" fill="#494949"/>
<path transform="translate(1163,380)" d="m0 0h19l4 4 1 2v42l-3 5-12 2-25 4-17 6-10 5-12 9-8 8-7 10-8 16-6 18-4 26-1 154-2 5-4 3-33 1-9-2-3-4v-301l2-4 7-2h29l7 2 2 3 1 54h2l4-4 4-5 4-7 4-6h2l2-4 9-10 8-8 10-7 14-7 11-4zm8 1-11 3-15 2-6 3-6 2-2 2-7 2-3 3-10 7-14 14v2l-4 1-2 4-2 1-2 7-3 1-3 6-5 8-3 3h-3l-1-2-1-56-1-3-2-1h-36l-3 2-1 8v285l1 8 5 4h35l6-5 1-161 2-12 2-7 2-10 2-3 2-8 3-5 7-14 8-11 8-7 10-7 10-5 10-4 15-3 11-2 16-1 3-3 1-3v-34l-1-7-4-4z" fill="#494949"/>
<path transform="translate(1867,503)" d="m0 0h2l4 31v18l-5 6-5 1-218 1-4 2-1 2v14l3 16 4 13 8 15 7 9 6 7 14 10 16 7 12 3 12 2h26l18-3 13-5 9-5 10-9 7-9 5-10 4-9 2-5 4-4 6-1h32l5 2 2 4v7l-2 1-1-8-4-1h-35l-6 2-2 10-2 2-3 9-5 8h-2l-2 5-8 7-10 7-7 3-16 5-7 1h-34l-23-5-9-4-7-4-15-12v-2l-4-2-7-8-6-9-5-10-4-11-3-16-1-4v-12l4-6 6-4 222-1 3-5v-11l-2-10z" fill="#545454"/>
<path transform="translate(477,387)" d="m0 0h29l9 2 3 7v128l-1 170-5 5-34 1-8-2-3-4-1-4v-295l2-5 3-2zm-5 3-3 4v299l5 4h34l6-4 1-53v-245l-4-5z" fill="#4F4F4F"/>
<path transform="translate(754,423)" d="m0 0h33l7 2 4 2 10 2 15 9 1 3 4 2 9 9v3l3 1 6 10 4 7 2 6 3 7 4 12 2 15 2 10v28l-3 15-2 16-2 3-3 12h-2l-2 9-3 5-6 11-3 1-1 5-4 5-5 5-9 8-4 1-1 3-11 5-11 4-18 2h-17l-17-3-11-4-5-3-10-7-6-7-5-5-4-6v-2l-3-1-7-14-2-3-3-9-2-5-2-10-2-6-2-27v-21l2-24 3-7 2-11 3-5 3-7 4-9h2l2-6 7-9 5-5 11-9 7-4 5-2 3-2 11-2 3-2zm1 2-9 3-10 2-17 9-17 16-8 12-7 14-4 11-4 19-1 10v36l2 17 3 16 10 24 9 14 7 7 5 6 10 7 13 6 20 4h18l21-4 13-6 11-7 2-4 4-2 1-3 4-2 9-13 5-9 8-19 4-16 3-33-1-19-2-18-5-18-5-11-5-10-8-11-13-13-16-9-5-2-12-3-3-1z" fill="#4A4A4A"/>
<path transform="translate(1357,380)" d="m0 0h38l25 5 21 9 10 7 12 9 13 12 9 12 7 11 8 16 9 24 3 14 2 9 3 25v20l-5 5-5 1-218 1-3 1-1 3-1 15-2-2-1-3v-9l3-6 6-4 219-1 3-1 1-3v-12l-2-30-2-3-2-15-3-6-2-9-3-4-2-7-3-7-6-12-3-5-5-7v-2l-3-1-2-4-7-6-5-5v-2l-5-2-9-7-5-4-16-8-6-2-7-3-20-3-8-2h-21l-13 3-16 2-5 3h-6l3-3 8-3z" fill="#545454"/>
<path transform="translate(275,541)" d="m0 0h10l5 5 2 3v49l-5 17-9 14-10 11-5 3-3 3-5 3-11 6-9 4-27 5h-27l-11-2-13-4-9-5-5-4-9-12-5-14v-17l5-16 7-9 5-5 6-5h3l1-3 10-5 9-3 7-2 9-2 8-2 21-2 7-2 22-2 5-2 17-3zm4 3-26 6-35 5-16 2-21 4-15 5-8 4-13 10-8 11-4 15v17l3 11 6 9 7 7 12 6 10 3 7 1h33l18-3 16-6 14-8 13-11 10-14 5-13 2-16v-34l-1-7-3-3z" fill="#494949"/>
<path transform="translate(1357,423)" d="m0 0h31l9 2 5 2 9 3 8 4 9 6 5 3 6 7 5 5 4 5 8 13 5 13 4 17-1 6-5 6-3 1h-167l-5-4-1-2v-16l5-17 7-13 4-6 5-7h2l2-4 7-6 5-4 14-7 3-2 10-2 3-2zm2 2-19 5-9 4-15 10-6 5v2l-3 1-9 13-5 9-4 9-4 13v13l5 4h165l5-3 1-2v-9l-4-15-7-16-8-11-7-8-9-7-12-8-12-5-16-4z" fill="#484848"/>
<path transform="translate(1712,423)" d="m0 0h32l8 2 5 2 8 2 2 2 8 3 10 7 8 6 5 6 8 11 6 12 2 6 2 3 2 11 2 4v8l-1 2h-2l-2 4-3 2h-167l-5-3-3-5v-9l3-14 2-3 2-7 2-2 3-7 6-8 3-5 11-11 15-10 7-3 11-3 4-2zm2 2-19 5-12 6-14 10-10 10-7 11-7 14-5 17v10l4 4 2 1h165l5-4 1-7-4-16-7-16-7-11-9-10-8-7-13-8-12-5-15-4z" fill="#484848"/>
<path transform="translate(1163,380)" d="m0 0h19l4 4 1 2v42l-3 5-12 2-25 4-17 6-10 5-12 9-8 8-7 10-8 16-6 18-4 26-1 154h-2v-160l2-12 2-7 2-10 2-3 2-8 3-5 7-14 9-12 8-7 10-7 10-5 10-4 15-3 11-2 16-1 3-5v-34l-1-7-3-3h-9l-11 3-15 2-6 3-6 2-2 2-7 1-1 3-6 4-5 3-8 8h-2l-2 4h-2l-1 4-5 1 6-8 12-12 10-7 14-7 11-4z" fill="#484848"/>
<path transform="translate(754,423)" d="m0 0h33l7 2 4 2 10 2 15 9 1 3 4 2 9 9v3l3 1 6 10 4 7 2 6 3 7 4 12 2 15 2 10v28l-3 15-2 16-2 3-3 12h-2l-2 9-3 5-6 11-4 1 2-4 6-11 8-19 4-16 3-33-1-19-2-18-5-18-5-11-5-10-8-11-12-12-16-9-5-2-12-3-3-1h-30l-9 3-10 2-3 2-3-1 4-4 11-2 3-2z" fill="#494949"/>
<path transform="translate(162,388)" d="m0 0m-4 1h4v2l-8 4-5 2-9 5-6 2v2l-5 3h-2l-1 3-4 1-2 4h-2l-1 4-5 5h-3l-1 7-3 1-2 9-2 2-5 21v15h39l2-1 4-11 2-10 5-9 5-7 9-7 7-4 7-3 2-1h8l-1 2-16 6-11 7-3 4h-2l-2 5-5 10-3 15-3 5-3 2h-40l-5-4-1-2 1-13 4-15 4-11 5-9 6-8 14-15 14-9 13-6z" fill="#4A4A4A"/>
<path transform="translate(1325,388)" d="m0 0 2 1-4 4-9 4-9 5-3 2h-3l-1 3-15 10h-2l-2 4-6 5-2 4-3 3-2 3h-2l-2 6-3 5-4 6-3 5-4 8-4 10-2 3-2 9-2 2-2 17-3 7-1 54-2-4-1-13v-25l3-22 4-18 7-18 7-14 13-21 12-13 5-5 16-12 17-10z" fill="#484848"/>
<path transform="translate(1742,380)" d="m0 0h9l20 4 17 6 16 9 12 9 10 9 7 7 10 14 10 18 10 24 4 15 1 2v6l-4-4-1-3-1-11-4-8-2-5-2-3-2-7-5-10-6-9-3-6-3-4v-2l-3-1-2-4-5-5-6-5-5-5-9-7-5-4-7-3v-2l-9-2-2-2-9-2-2-2-21-3-8-2z" fill="#4A4A4A"/>
<path transform="translate(1712,423)" d="m0 0h32l8 2 5 2 8 2 2 2 8 3 10 7 8 6 5 6 8 11 6 12 2 6 2 3v8l-2-1-6-16-6-11-8-11-8-8-15-10-14-6-15-4h-28l-10 3h-5l4-4z" fill="#494949"/>
<path transform="translate(734,383)" d="m0 0m-7 1h7v2l-7 1-6 3-7 2-7 3h-3v2l-8 4-4 3h-3l-1 3-6 4-10 9-10 10-2 4-3 3-2 3h-2l-1 5-3 3-3 8-2 3h-2l1-6 6-10 12-17 5-6 16-14 14-9 16-8z" fill="#484848"/>
<path transform="translate(1826,600)" d="m0 0h32l5 2 2 4v7l-2 1-1-8-4-1h-35l-6 2v3h-2l1-5 4-4z" fill="#5A5A5A"/>
<path transform="translate(754,423)" d="m0 0h33l7 2 6 3v1l-10-1-5-2h-30l-9 3-10 2-3 2-3-1 4-4 11-2 3-2z" fill="#484848"/>
<path transform="translate(201,519)" d="m0 0m-6 1h6v2l-4 2-18 2-7 3-14 2-6 3h-7l1-2 12-4 16-4 18-3z" fill="#484848"/>
<path transform="translate(201,380)" d="m0 0h7v2l-11 3-21 2-7 3h-7l1-2 13-4z" fill="#494949"/>
<path transform="translate(1235,496)" d="m0 0h1v11l-5 12-1-2 3-16z" fill="#494949"/>
<path transform="translate(183,383)" d="m0 0m-7 1h7v2l-7 1-7 3h-7l1-2z" fill="#484848"/>
<path transform="translate(834,811)" d="m0 0m-1 1m-1 1m-5 1h5v2l-11 4-6 1v-2l7-4z" fill="#4A4A4A"/>
<path transform="translate(845,608)" d="m0 0 1 3-6 11-4 1 2-4 6-10z" fill="#484848"/>
<path transform="translate(1863,614)" d="m0 0h1l-1 7-3 7h-2l1-8z" fill="#4A4A4A"/>
<path transform="translate(1092,422)" d="m0 0 1 3-4 2-1 5-3 3-3 1 2-5 5-7z" fill="#4D4D4D"/>
<path transform="translate(1081,499)" d="m0 0 1 4-3 8h-2v-7z" fill="#4B4B4B"/>
<path transform="translate(108,427)" d="m0 0 1 3-2 4h-2v2l-3 1 2-6z" fill="#4C4C4C"/>
</svg>
